<svg width="48" height="48" viewBox="0 0 48 48" fill="none" xmlns="http://www.w3.org/2000/svg">
<path d="M20.4286 8.5H6.85714C5.27919 8.5 4 9.77919 4 11.3571V36.3571C4 37.9351 5.27919 39.2143 6.85714 39.2143H12.9484C12.2698 38.4561 11.8571 37.4548 11.8571 36.3571V20.6429C11.8571 18.2759 13.7759 16.3571 16.1429 16.3571H23.2857V11.3571C23.2857 9.77919 22.0065 8.5 20.4286 8.5Z" fill="#00006F"/>
<path d="M13.2857 36.3571V20.6429C13.2857 19.0649 14.5649 17.7857 16.1429 17.7857H23.2857H38.2857C39.3433 17.7857 40.2666 18.3603 40.7606 19.2143H36.8571C34.4902 19.2143 32.5714 21.1331 32.5714 23.5V36.3571C32.5714 37.4548 32.9841 38.4561 33.6627 39.2143H20.4286H16.1429C14.5649 39.2143 13.2857 37.9351 13.2857 36.3571Z" fill="#00006F"/>
<path d="M36.8571 20.6429H41.1429C41.6633 20.6429 42.1512 20.782 42.5714 21.0251C43.4254 21.5191 44 22.4425 44 23.5V36.3571C44 37.8142 42.9093 39.0166 41.4998 39.1922C41.3829 39.2068 41.2637 39.2143 41.1429 39.2143H38.2857H36.8571C35.2792 39.2143 34 37.9351 34 36.3571V23.5C34 21.922 35.2792 20.6429 36.8571 20.6429Z" fill="#00006F"/>
</svg>
