<svg width="32" height="32" viewBox="0 0 32 32" fill="none" xmlns="http://www.w3.org/2000/svg">
<path d="M13.3333 24C15.7 23.9995 17.9984 23.2072 19.8627 21.7493L25.724 27.6107L27.6093 25.7253L21.748 19.864C23.2067 17.9996 23.9994 15.7006 24 13.3333C24 7.452 19.2147 2.66667 13.3333 2.66667C7.452 2.66667 2.66667 7.452 2.66667 13.3333C2.66667 19.2147 7.452 24 13.3333 24ZM13.3333 5.33333C17.7453 5.33333 21.3333 8.92133 21.3333 13.3333C21.3333 17.7453 17.7453 21.3333 13.3333 21.3333C8.92133 21.3333 5.33333 17.7453 5.33333 13.3333C5.33333 8.92133 8.92133 5.33333 13.3333 5.33333Z" fill="white"/>
</svg>
