<svg width="32" height="32" viewBox="0 0 32 32" fill="none" xmlns="http://www.w3.org/2000/svg">
<path d="M16 2.66667C8.64799 2.66667 2.66666 8.648 2.66666 16C2.66666 23.352 8.64799 29.3333 16 29.3333C23.352 29.3333 29.3333 23.352 29.3333 16C29.3333 8.648 23.352 2.66667 16 2.66667ZM16 26.6667C10.1187 26.6667 5.33332 21.8813 5.33332 16C5.33332 10.1187 10.1187 5.33333 16 5.33333C21.8813 5.33333 26.6667 10.1187 26.6667 16C26.6667 21.8813 21.8813 26.6667 16 26.6667Z" fill="white"/>
<path d="M17.3333 9.33333H14.6667V16.552L19.0573 20.9427L20.9427 19.0573L17.3333 15.448V9.33333Z" fill="white"/>
</svg>
