<svg width="32" height="32" viewBox="0 0 32 32" fill="none" xmlns="http://www.w3.org/2000/svg">
<path d="M16 2.66667C8.64802 2.66667 2.66669 8.648 2.66669 16C2.66669 23.352 8.64802 29.3333 16 29.3333C23.352 29.3333 29.3334 23.352 29.3334 16C29.3334 8.648 23.352 2.66667 16 2.66667ZM26.5747 14.6667H22.8894C22.7249 11.7483 21.9084 8.90395 20.5 6.34267C22.1323 7.1054 23.5452 8.26853 24.6072 9.72388C25.6693 11.1792 26.3461 12.8795 26.5747 14.6667ZM16.7067 5.36933C18.0867 7.188 19.9427 10.4093 20.2094 14.6667H12.04C12.2254 11.2053 13.3654 7.96267 15.308 5.368C15.5374 5.35467 15.7667 5.33333 16 5.33333C16.2387 5.33333 16.472 5.35467 16.7067 5.36933ZM11.584 6.30267C10.272 8.824 9.51469 11.6827 9.37335 14.6667H5.42535C5.65571 12.8638 6.3422 11.1495 7.41988 9.68589C8.49755 8.22231 9.93079 7.05785 11.584 6.30267ZM5.42535 17.3333H9.39069C9.57202 20.5053 10.2774 23.304 11.4654 25.64C9.84161 24.8746 8.43699 23.7122 7.3813 22.2604C6.32561 20.8085 5.6529 19.114 5.42535 17.3333ZM15.2667 26.6307C13.3987 24.3667 12.296 21.1947 12.0547 17.3333H20.2054C19.928 21.0307 18.716 24.2613 16.7347 26.6293C16.492 26.6453 16.2494 26.6667 16 26.6667C15.752 26.6667 15.5107 26.6453 15.2667 26.6307ZM20.6147 25.6013C21.888 23.2093 22.6654 20.4 22.8694 17.3333H26.5734C26.3483 19.099 25.6853 20.7804 24.6446 22.2245C23.6039 23.6685 22.2186 24.8294 20.6147 25.6013Z" fill="#FBFDFD"/>
</svg>
